<svg width="25" height="25" viewBox="0 0 25 25" fill="none" xmlns="http://www.w3.org/2000/svg">
<g clip-path="url(#clip0_7902_8268)">
<path d="M9.71756 10.7133C10.6559 12.3617 12.0211 13.7269 13.6696 14.6652L14.5536 13.4272C14.6957 13.2282 14.9059 13.0881 15.1444 13.0336C15.3828 12.979 15.633 13.0138 15.8476 13.1313C17.2619 13.9042 18.8238 14.369 20.4306 14.4952C20.6813 14.5151 20.9154 14.6288 21.0861 14.8136C21.2568 14.9984 21.3516 15.2407 21.3516 15.4923V19.9543C21.3516 20.2018 21.2598 20.4407 21.0939 20.6245C20.928 20.8083 20.6999 20.924 20.4536 20.9492C19.9236 21.0042 19.3896 21.0312 18.8516 21.0312C10.2916 21.0312 3.35156 14.0913 3.35156 5.53125C3.35156 4.99325 3.37856 4.45925 3.43356 3.92925C3.45882 3.68295 3.57455 3.45477 3.75835 3.28888C3.94216 3.123 4.18097 3.0312 4.42856 3.03125H8.89056C9.14212 3.03122 9.38446 3.126 9.56924 3.2967C9.75403 3.4674 9.86769 3.70147 9.88756 3.95225C10.0138 5.55904 10.4786 7.12093 11.2516 8.53525C11.369 8.74981 11.4038 8.99999 11.3492 9.23845C11.2947 9.4769 11.1546 9.68709 10.9556 9.82925L9.71756 10.7133ZM7.19556 10.0562L9.09556 8.69925C8.55635 7.53534 8.18691 6.30009 7.99856 5.03125H5.36156C5.35556 5.19725 5.35256 5.36425 5.35256 5.53125C5.35156 12.9872 11.3956 19.0312 18.8516 19.0312C19.0186 19.0312 19.1856 19.0282 19.3516 19.0212V16.3843C18.0827 16.1959 16.8475 15.8265 15.6836 15.2872L14.3266 17.1873C13.7802 16.975 13.2496 16.7243 12.7386 16.4373L12.6806 16.4042C10.7191 15.288 9.09484 13.6637 7.97856 11.7022L7.94556 11.6442C7.65847 11.1332 7.40785 10.6026 7.19556 10.0562Z" fill="#FCFCFC"/>
</g>
<defs>
<clipPath id="clip0_7902_8268">
<rect width="24" height="24" fill="white" transform="translate(0.351562 0.03125)"/>
</clipPath>
</defs>
</svg>
