<svg width="25" height="25" viewBox="0 0 25 25" fill="none" xmlns="http://www.w3.org/2000/svg">
<path d="M12.8002 3.70385L4.31518 12.1888L12.8002 20.6738L21.2852 12.1888L12.8002 3.70385ZM13.5072 1.58185L23.4072 11.4818C23.5946 11.6694 23.7 11.9237 23.7 12.1888C23.7 12.454 23.5946 12.7083 23.4072 12.8958L13.5072 22.7958C13.3196 22.9833 13.0653 23.0886 12.8002 23.0886C12.535 23.0886 12.2807 22.9833 12.0932 22.7958L2.19318 12.8958C2.00571 12.7083 1.90039 12.454 1.90039 12.1888C1.90039 11.9237 2.00571 11.6694 2.19318 11.4818L12.0932 1.58185C12.2807 1.39438 12.535 1.28906 12.8002 1.28906C13.0653 1.28906 13.3196 1.39438 13.5072 1.58185ZM13.8002 10.1888V7.68885L17.3002 11.1888L13.8002 14.6888V12.1888H10.8002V15.1888H8.80018V11.1888C8.80018 10.9236 8.90553 10.6693 9.09307 10.4817C9.28061 10.2942 9.53496 10.1888 9.80018 10.1888H13.8002Z" fill="#FCFCFC"/>
</svg>
