<svg width="25" height="25" viewBox="0 0 25 25" fill="none" xmlns="http://www.w3.org/2000/svg">
<g clip-path="url(#clip0_7902_8787)">
<path d="M18.5449 15.3956L17.1309 13.9796L18.5449 12.5656C19.0126 12.1021 19.384 11.5507 19.638 10.9432C19.892 10.3357 20.0234 9.68402 20.0249 9.02557C20.0263 8.36712 19.8977 7.71487 19.6464 7.10627C19.3951 6.49766 19.026 5.94468 18.5604 5.47909C18.0948 5.01349 17.5419 4.64445 16.9333 4.39313C16.3247 4.14182 15.6724 4.01319 15.014 4.01464C14.3555 4.01608 13.7038 4.14756 13.0963 4.40154C12.4888 4.65551 11.9375 5.02698 11.4739 5.49461L10.0599 6.90961L8.64492 5.49561L10.0609 4.08161C11.3737 2.76879 13.1543 2.03125 15.0109 2.03125C16.8675 2.03125 18.6481 2.76879 19.9609 4.08161C21.2737 5.39443 22.0113 7.175 22.0113 9.03161C22.0113 10.8882 21.2737 12.6688 19.9609 13.9816L18.5459 15.3956H18.5449ZM15.7169 18.2236L14.3019 19.6376C12.9891 20.9504 11.2085 21.688 9.35192 21.688C7.49531 21.688 5.71474 20.9504 4.40192 19.6376C3.0891 18.3248 2.35156 16.5442 2.35156 14.6876C2.35156 12.831 3.0891 11.0504 4.40192 9.73761L5.81692 8.32361L7.23092 9.73961L5.81692 11.1536C5.34929 11.6172 4.97782 12.1685 4.72385 12.776C4.46987 13.3835 4.33839 14.0352 4.33695 14.6936C4.33551 15.3521 4.46413 16.0043 4.71545 16.6129C4.96676 17.2216 5.33581 17.7745 5.8014 18.2401C6.267 18.7057 6.81997 19.0748 7.42858 19.3261C8.03718 19.5774 8.68943 19.706 9.34788 19.7046C10.0063 19.7031 10.658 19.5717 11.2655 19.3177C11.873 19.0637 12.4244 18.6922 12.8879 18.2246L14.3019 16.8106L15.7169 18.2246V18.2236ZM15.0089 7.61661L16.4239 9.03161L9.35292 16.1016L7.93792 14.6876L15.0089 7.61761V7.61661Z" fill="#FCFCFC"/>
</g>
<defs>
<clipPath id="clip0_7902_8787">
<rect width="24" height="24" fill="white" transform="translate(0.351562 0.03125)"/>
</clipPath>
</defs>
</svg>
