<svg width="17" height="17" viewBox="0 0 17 17" fill="none" xmlns="http://www.w3.org/2000/svg">
<path fill-rule="evenodd" clip-rule="evenodd" d="M14.58 9.24295C14.3578 8.69504 14.3578 8.08753 14.58 7.55474L14.654 7.37712C15.1278 6.25121 14.58 4.94834 13.4543 4.47378L13.2911 4.39972C12.7433 4.17755 12.3135 3.74825 12.0914 3.19975L12.0324 3.05164C11.5442 1.92631 10.2559 1.39291 9.11582 1.85225L8.96773 1.91127C8.41992 2.13344 7.81253 2.13344 7.26472 1.91127L7.13168 1.85225C6.02102 1.39286 4.71771 1.94078 4.24397 3.06667L4.18497 3.18528C3.96284 3.73319 3.53362 4.16307 2.98523 4.38525L2.85218 4.44426C1.74095 4.91811 1.19316 6.22163 1.6669 7.34701L1.72591 7.48008C1.94804 8.02799 1.94804 8.63549 1.72591 9.16829L1.6669 9.33145C1.19314 10.4574 1.72648 11.7608 2.86665 12.2203L3.01473 12.2793C3.56254 12.5015 3.99235 12.9308 4.21448 13.4793L4.28852 13.6424C4.74725 14.7822 6.05046 15.3157 7.17563 14.8563L7.33876 14.7822C7.88657 14.56 8.49396 14.56 9.04177 14.7822L9.17482 14.8412C10.3005 15.3151 11.6032 14.7672 12.0776 13.6413L12.1366 13.5226C12.3588 12.9747 12.788 12.5449 13.3364 12.3227L13.455 12.2781C14.5951 11.8043 15.1285 10.5159 14.6547 9.37479L14.58 9.24295ZM7.5313 11.2425L4.6436 8.81371L5.53212 7.76186L7.36811 9.31706L10.6109 5.46608L11.6626 6.35477L7.5313 11.2425Z" fill="#828282"/>
</svg>
