<svg width="25" height="25" viewBox="0 0 25 25" fill="none" xmlns="http://www.w3.org/2000/svg">
<g clip-path="url(#clip0_7788_18925)">
<path d="M12.0332 22.7344C6.51035 22.7344 2.0332 18.2572 2.0332 12.7344C2.0332 7.21152 6.51035 2.73438 12.0332 2.73438C17.556 2.73438 22.0332 7.21152 22.0332 12.7344C22.0332 18.2572 17.556 22.7344 12.0332 22.7344ZM12.0332 20.7344C16.4515 20.7344 20.0332 17.1527 20.0332 12.7344C20.0332 8.31609 16.4515 4.73438 12.0332 4.73438C7.61492 4.73438 4.0332 8.31609 4.0332 12.7344C4.0332 17.1527 7.61492 20.7344 12.0332 20.7344ZM11.0358 16.7344L6.79319 12.4918L8.20741 11.0775L11.0358 13.906L16.6927 8.24909L18.1069 9.66331L11.0358 16.7344Z" fill="#FCFCFC"/>
</g>
<defs>
<clipPath id="clip0_7788_18925">
<rect width="24" height="24" fill="white" transform="translate(0.0332031 0.734375)"/>
</clipPath>
</defs>
</svg>
