<svg width="42" height="41" viewBox="0 0 42 41" fill="none" xmlns="http://www.w3.org/2000/svg">
<path d="M17.015 0.745622C14.2119 -0.161798 11.1646 1.1004 9.82409 3.7242L8.21253 6.87854C8.02105 7.25334 7.71623 7.55816 7.34143 7.74964L4.18709 9.3612C1.56329 10.7017 0.301093 13.749 1.20851 16.5521L2.29943 19.9221C2.42905 20.3225 2.42905 20.7537 2.29943 21.1541L1.20851 24.5241C0.301093 27.3273 1.56329 30.3745 4.18709 31.7151L7.34143 33.3265C7.71623 33.5181 8.02105 33.8229 8.21253 34.1977L9.82409 37.3521C11.1646 39.9759 14.2119 41.2381 17.015 40.3307L20.385 39.2397C20.7854 39.1101 21.2166 39.1101 21.617 39.2397L24.987 40.3307C27.7902 41.2381 30.8374 39.9759 32.178 37.3521L33.7894 34.1977C33.981 33.8229 34.2858 33.5181 34.6606 33.3265L37.815 31.7151C40.4388 30.3745 41.701 27.3273 40.7936 24.5241L39.7026 21.1541C39.573 20.7537 39.573 20.3225 39.7026 19.9221L40.7936 16.5521C41.701 13.749 40.4388 10.7017 37.815 9.3612L34.6606 7.74964C34.2858 7.55816 33.981 7.25334 33.7894 6.87854L32.178 3.7242C30.8374 1.1004 27.7902 -0.161798 24.987 0.745622L21.617 1.83654C21.2166 1.96614 20.7854 1.96616 20.385 1.83654L17.015 0.745622ZM10.5205 20.0527L13.349 17.2241L19.0058 22.8811L30.3196 11.5674L33.148 14.3958L19.0058 28.5379L10.5205 20.0527Z" fill="#00D169"/>
</svg>
